Coordinates
version=1
nRows=49
nColumns=12
inDegrees=yes

Units are S.I. units (second, meters, Newtons, ...)
Angles are in degrees

endheader
time	SC_y	SC_z	SC_x	AC_y	AC_z	AC_x	GH_y	GH_z	GH_yy	EL_x	PS_y
       0.0              -32.03          19.02          3.787          65.62         -1.907          -3.88         -29.26         -11.19         -81.04          74.52          17.68
   0.04573              -32.03          19.02          3.792          65.62         -1.906          -3.88         -29.26         -11.19         -81.05          74.52          17.68
   0.09147              -32.03          19.02          3.797          65.61         -1.904         -3.879         -29.27         -11.18         -81.07          74.52          17.68
    0.1372              -32.02          19.02          3.803          65.61         -1.903         -3.878         -29.27         -11.18         -81.08          74.52          17.69
    0.1829              -32.02          19.02          3.809           65.6         -1.901         -3.878         -29.27         -11.17          -81.1          74.52          17.69
    0.2287              -32.02          19.02          3.816           65.6         -1.899         -3.877         -29.28         -11.17         -81.11          74.52           17.7
    0.2744              -32.01          19.02          3.823          65.59         -1.897         -3.876         -29.28         -11.16         -81.13          74.52           17.7
    0.3201              -32.01          19.02           3.83          65.58         -1.895         -3.875         -29.29         -11.16         -81.15          74.53          17.71
    0.3659              -32.01          19.02          3.838          65.58         -1.893         -3.874         -29.29         -11.15         -81.17          74.53          17.72
    0.4116               -32.0          19.02          3.847          65.57          -1.89         -3.873          -29.3         -11.14         -81.19          74.53          17.72
    0.4573               -32.0          19.02          3.856          65.56         -1.888         -3.872         -29.31         -11.14         -81.21          74.53          17.73
    0.5031              -31.99          19.02          3.866          65.55         -1.885         -3.871         -29.31         -11.13         -81.24          74.53          17.74
    0.5488              -31.99          19.02          3.877          65.54         -1.882          -3.87         -29.32         -11.12         -81.27          74.53          17.75
    0.5946              -31.98          19.02          3.888          65.53         -1.879         -3.869         -29.33         -11.11         -81.29          74.53          17.76
    0.6403              -31.97          19.02          3.901          65.52         -1.876         -3.867         -29.34          -11.1         -81.33          74.53          17.77
     0.686              -31.97          19.02          3.914          65.51         -1.872         -3.866         -29.35         -11.09         -81.36          74.53          17.78
    0.7318              -31.96          19.02          3.929           65.5         -1.868         -3.864         -29.36         -11.08          -81.4          74.53          17.79
    0.7775              -31.95          19.02          3.945          65.48         -1.863         -3.862         -29.37         -11.06         -81.44          74.53           17.8
    0.8232              -31.94          19.02          3.963          65.47         -1.858          -3.86         -29.38         -11.05         -81.48          74.53          17.81
     0.869              -31.94          19.02          3.982          65.45         -1.853         -3.858         -29.39         -11.03         -81.53          74.53          17.83
    0.9147              -31.92          19.02          4.003          65.43         -1.847         -3.856         -29.41         -11.01         -81.58          74.53          17.85
    0.9604              -31.91          19.02          4.027          65.41         -1.841         -3.853         -29.42         -10.99         -81.64          74.54          17.86
     1.006               -31.9          19.02          4.052          65.39         -1.834          -3.85         -29.44         -10.97          -81.7          74.54          17.88
     1.052              -31.89          19.02          4.081          65.37         -1.826         -3.847         -29.46         -10.95         -81.77          74.54          17.91
     1.098              -31.87          19.02          4.113          65.34         -1.817         -3.843         -29.48         -10.92         -81.85          74.54          17.93
     1.143              -31.85          19.02          4.148          65.31         -1.807         -3.839         -29.51         -10.89         -81.94          74.54          17.96
     1.189              -31.83          19.02          4.187          65.27         -1.796         -3.835         -29.53         -10.86         -82.04          74.54          17.99
     1.235              -31.81          19.02          4.232          65.23         -1.784          -3.83         -29.56         -10.82         -82.15          74.55          18.03
     1.281              -31.79          19.02          4.282          65.19          -1.77         -3.824          -29.6         -10.78         -82.28          74.55          18.06
     1.326              -31.76          19.02          4.339          65.14         -1.754         -3.818         -29.64         -10.74         -82.42          74.55          18.11
     1.372              -31.73          19.02          4.405          65.08         -1.736          -3.81         -29.68         -10.68         -82.58          74.56          18.16
     1.418              -31.69          19.02           4.48          65.02         -1.716         -3.802         -29.73         -10.62         -82.77          74.56          18.22
     1.464              -31.65          19.02          4.566          64.94         -1.692         -3.792         -29.79         -10.55         -82.98          74.57          18.29
     1.509               -31.6          19.02          4.666          64.86         -1.664         -3.781         -29.86         -10.47         -83.23          74.57          18.37
     1.555              -31.54          19.02          4.784          64.75         -1.632         -3.767         -29.94         -10.37         -83.52          74.58          18.46
     1.601              -31.47          19.02          4.922          64.63         -1.594         -3.752         -30.04         -10.25         -83.87          74.59          18.57
     1.646              -31.39          19.02          5.087          64.49         -1.548         -3.733         -30.15         -10.12         -84.28          74.59           18.7
     1.692               -31.3          19.02          5.284          64.32         -1.494         -3.711         -30.29         -9.956         -84.77          74.61          18.85
     1.738              -31.18          19.02          5.523          64.11         -1.428         -3.684         -30.45         -9.758         -85.37          74.62          19.04
     1.784              -31.04          19.02          5.814          63.86         -1.347         -3.651         -30.65         -9.518         -86.09          74.63          19.27
     1.829              -30.86          19.02          6.174          63.54         -1.248          -3.61          -30.9          -9.22         -86.99          74.65          19.55
     1.875              -30.64          19.02          6.623          63.15         -1.124         -3.559          -31.2          -8.85         -88.11          74.68           19.9
     1.921              -30.36          19.02          7.188          62.66        -0.9679         -3.495         -31.59         -8.383         -89.51          74.71          20.34
     1.967              -30.01          19.02          7.907          62.03        -0.7696         -3.414         -32.09         -7.789          -91.3          74.75          20.91
     2.012              -29.56          19.02          8.826          61.23        -0.5156          -3.31         -32.72         -7.029         -93.59           74.8          21.63
     2.058              -28.98          19.02          10.01          60.21        -0.1898         -3.176         -33.53         -6.054         -96.53          74.86          22.55
     2.104              -28.24          19.02          11.51          58.89         0.2265         -3.005         -34.56         -4.809         -100.3          74.95          23.73
      2.15              -27.31          19.02          13.41          57.24         0.7498         -2.791         -35.86         -3.242         -105.0          75.05          25.22
     2.195              -26.18          19.02          15.72          55.23          1.388         -2.529         -37.45         -1.334         -110.8          75.18          27.03
